<?xml version="1.0" encoding="UTF-8" standalone="no"?>
<!-- Created with Inkscape (http://www.inkscape.org/) -->

<svg
   width="210mm"
   height="297mm"
   viewBox="0 0 210 297"
   version="1.1"
   id="svg2001"
   inkscape:version="1.1.1 (3bf5ae0d25, 2021-09-20)"
   sodipodi:docname="Bootle Holder.svg"
   xmlns:inkscape="http://www.inkscape.org/namespaces/inkscape"
   xmlns:sodipodi="http://sodipodi.sourceforge.net/DTD/sodipodi-0.dtd"
   xmlns="http://www.w3.org/2000/svg"
   xmlns:svg="http://www.w3.org/2000/svg">
  <sodipodi:namedview
     id="namedview2003"
     pagecolor="#ffffff"
     bordercolor="#666666"
     borderopacity="1.0"
     inkscape:pageshadow="2"
     inkscape:pageopacity="0.0"
     inkscape:pagecheckerboard="0"
     inkscape:document-units="mm"
     showgrid="false"
     inkscape:zoom="0.66772387"
     inkscape:cx="420.08383"
     inkscape:cy="740.57559"
     inkscape:window-width="1366"
     inkscape:window-height="715"
     inkscape:window-x="-8"
     inkscape:window-y="-8"
     inkscape:window-maximized="1"
     inkscape:current-layer="layer1" />
  <defs
     id="defs1998" />
  <g
     inkscape:label="Layer 1"
     inkscape:groupmode="layer"
     id="layer1">
    <rect
       style="fill:none;stroke:#000000;stroke-width:0.259488"
       id="rect2035"
       width="43.740513"
       height="7.7405124"
       x="15.897744"
       y="-75.302254"
       transform="rotate(90)" />
    <rect
       style="fill:none;stroke:#000000;stroke-width:0.259488"
       id="rect2035-7"
       width="43.740513"
       height="7.7405124"
       x="75.379745"
       y="-75.302254"
       transform="rotate(90)" />
    <rect
       style="fill:none;stroke:#000000;stroke-width:0.260913"
       id="rect2037"
       width="43.739086"
       height="11.739086"
       x="19.822456"
       y="61.640686" />
    <rect
       style="fill:none;stroke:#000000;stroke-width:0.260914"
       id="rect2037-7"
       width="43.739086"
       height="11.739086"
       x="79.30246"
       y="61.64069" />
    <rect
       style="fill:none;stroke:#000000;stroke-width:0.258875"
       id="rect2039"
       width="11.741125"
       height="11.741125"
       x="65.561302"
       y="61.638653" />
    <path
       id="rect2205"
       style="fill:none;stroke:#000000;stroke-width:0.264583"
       d="m 90.101234,90.038236 v 17.999944 h 46.999716 v -6.49986 h 3.00033 v -5.000224 h -3.00033 v -6.49986 z" />
    <path
       id="rect2207"
       style="fill:none;stroke:#000000;stroke-width:0.260963"
       d="m 142.33966,107.03841 v 2.99982 h -3.23908 v 46.73927 h 11.73882 v -46.73927 h -3.50005 v -2.99982 z" />
    <path
       id="rect2289"
       style="fill:none;stroke:#000000;stroke-width:0.260963"
       d="m 139.10042,41.299406 v 46.73927 h 3.50005 v 2.99981 h 4.99969 v -2.99981 h 3.23908 v -46.73927 z" />
    <path
       id="rect2291"
       style="fill:none;stroke:#000000;stroke-width:0.264583"
       d="m 152.83905,90.038246 v 6.49986 h -2.99982 v 5.000214 h 2.99982 v 6.49986 h 47.00024 V 90.038246 Z" />
    <path
       style="fill:none;stroke:#000000;stroke-width:0.26281;stroke-opacity:1"
       d="m 101.03263,247.32049 h 9.73719 v 9.73719 h -9.73719 z"
       id="path3942" />
    <path
       style="fill:none;stroke:#000000;stroke-width:0.263122;stroke-opacity:1"
       d="m 76.53299,232.33242 v 6.70863 h 2.662369 v 9.16275 H 76.53299 v 7.00009 h 2.662369 v 9.16223 H 76.53299 v 7.70289 h 58.73647 v -7.70289 h -2.66237 v -9.16275 h 2.66237 v -6.70863 h -2.66237 v -9.16275 h 2.66237 v -6.99957 h -8.67131 v 2.67322 h -9.0196 v -2.67322 h -7.67809 v 2.67322 h -9.0196 v -2.67322 h -7.66982 v 2.67322 h -9.019604 v -2.67322 z"
       id="rect1095" />
    <path
       id="rect2174"
       style="fill:none;fill-rule:evenodd;stroke:#000000;stroke-width:0.993914;stroke-opacity:1"
       d="M 144.51562 877.40039 L 144.51562 887.28125 L 89.279297 887.28125 L 89.279297 896.29688 L 79.142578 896.29688 L 79.142578 932.89062 L 89.279297 932.89062 L 89.279297 972.0957 L 79.142578 972.0957 L 79.142578 1008.6895 L 89.279297 1008.6895 L 89.279297 1027.5879 L 255.77148 1027.5879 L 255.77148 997.71875 L 265.92188 997.71875 L 265.92188 962.92773 L 255.68359 962.92773 L 255.68359 937.51562 L 265.92188 937.51562 L 265.92188 902.81055 L 255.68359 902.81055 L 255.68359 887.28125 L 200.44922 887.28125 L 200.44922 877.40039 L 144.51562 877.40039 z "
       transform="scale(0.26458333)" />
    <path
       id="rect2860"
       style="fill:none;fill-rule:evenodd;stroke:#000000;stroke-width:0.993914;stroke-opacity:1"
       d="M 604.19141 875.10938 L 604.19141 884.99023 L 548.95508 884.99023 L 548.95508 901.50195 L 538.74023 901.50195 L 538.74023 936.19531 L 548.97852 936.19531 L 548.97852 961.55078 L 538.74023 961.55078 L 538.74023 996.26172 L 548.9043 996.26172 L 548.9043 1025.2969 L 715.38477 1025.2969 L 715.38477 1006.3984 L 725.52148 1006.3984 L 725.52148 969.80469 L 715.38477 969.80469 L 715.38477 930.60156 L 725.52148 930.60156 L 725.52148 894.00586 L 715.38477 894.00586 L 715.38477 884.99023 L 660.15039 884.99023 L 660.15039 875.10938 L 604.19141 875.10938 z "
       transform="scale(0.26458333)" />
    <rect
       style="fill:none;stroke:#000000;stroke-width:0.245614"
       id="rect3858"
       width="2.7543859"
       height="3.7543859"
       x="97.278435"
       y="250.32085" />
    <rect
       style="fill:none;stroke:#000000;stroke-width:0.245614"
       id="rect3962"
       width="2.7543859"
       height="3.7543859"
       x="111.77244"
       y="250.31084" />
    <rect
       style="fill:none;stroke:#000000;stroke-width:0.245614"
       id="rect3964"
       width="3.7543859"
       height="2.7543857"
       x="104.02744"
       y="258.06985" />
    <rect
       style="fill:none;stroke:#000000;stroke-width:0.245614"
       id="rect3966"
       width="3.7543862"
       height="2.7543859"
       x="104.01745"
       y="243.55684" />
    <rect
       style="fill:none;stroke:#000000;stroke-width:0.38549"
       id="rect21572"
       height="14.614511"
       x="285.0325"
       y="157.132"
       transform="matrix(0,1,1,0,0,0)"
       width="2.6143134" />
    <path
       id="path21605"
       style="fill:none;stroke:#000000;stroke-width:0.254784;stroke-opacity:1"
       d="m 79.33052,158.10665 v 4.50154 h -2.511474 v 9.68312 h 2.511474 v 10.69134 h -2.511474 v 9.68416 h 2.511474 v 10.00094 h -2.511474 v 9.68365 h 2.511474 v 4.5005 h 14.614611 v -2.61431 h 14.799099 v 2.61431 h 14.64252 v -7.67963 h 2.50992 v -9.001 h -2.50992 v -7.69049 h 2.50992 v -9.00152 h -2.50992 v -7.68997 h 2.50992 v -9.00978 h -2.50166 v -8.67286 h -14.64458 v 2.61431 H 93.944615 v -2.61431 z" />
  </g>
</svg>
