<?xml version="1.0" encoding="UTF-8" standalone="no"?>
<!-- Created with Inkscape (http://www.inkscape.org/) -->

<svg
   width="210mm"
   height="297mm"
   viewBox="0 0 210 297"
   version="1.1"
   id="svg5"
   inkscape:version="1.1.1 (3bf5ae0d25, 2021-09-20)"
   sodipodi:docname="Gan Bottle Holder Bottom.svg"
   xmlns:inkscape="http://www.inkscape.org/namespaces/inkscape"
   xmlns:sodipodi="http://sodipodi.sourceforge.net/DTD/sodipodi-0.dtd"
   xmlns="http://www.w3.org/2000/svg"
   xmlns:svg="http://www.w3.org/2000/svg">
  <sodipodi:namedview
     id="namedview7"
     pagecolor="#ffffff"
     bordercolor="#666666"
     borderopacity="1.0"
     inkscape:pageshadow="2"
     inkscape:pageopacity="0.0"
     inkscape:pagecheckerboard="0"
     inkscape:document-units="mm"
     showgrid="false"
     inkscape:zoom="1.4142136"
     inkscape:cx="430.27447"
     inkscape:cy="131.87541"
     inkscape:window-width="1366"
     inkscape:window-height="715"
     inkscape:window-x="-8"
     inkscape:window-y="-8"
     inkscape:window-maximized="1"
     inkscape:current-layer="layer1" />
  <defs
     id="defs2" />
  <g
     inkscape:label="Layer 1"
     inkscape:groupmode="layer"
     id="layer1">
    <path
       style="fill:none;stroke:#000000;stroke-width:0.26281;stroke-opacity:1"
       d="m 91.545121,82.503312 h 9.737189 v 9.73719 h -9.737189 z"
       id="path3942" />
    <path
       style="fill:none;stroke:#000000;stroke-width:0.263122;stroke-opacity:1"
       d="m 67.045483,67.515238 v 6.708634 h 2.662369 v 9.162749 h -2.662369 v 7.000089 h 2.662369 v 9.162232 h -2.662369 v 7.702888 h 58.736467 v -7.702888 h -2.66237 v -9.162748 h 2.66237 v -6.708635 h -2.66237 v -9.162748 h 2.66237 v -6.999573 h -8.67131 v 2.673223 h -9.0196 v -2.673223 h -7.67809 v 2.673223 h -9.019602 v -2.673223 h -7.669815 v 2.673223 h -9.019604 v -2.673223 z"
       id="rect1095" />
    <path
       id="rect2174"
       style="fill:none;fill-rule:evenodd;stroke:#000000;stroke-width:0.993914;stroke-opacity:1"
       d="M 53.421875 254.46875 L 53.421875 273.36523 L 43.285156 273.36523 L 43.285156 309.95898 L 53.421875 309.95898 L 53.421875 349.16406 L 43.285156 349.16406 L 43.285156 385.75781 L 53.421875 385.75781 L 53.421875 404.65625 L 219.91406 404.65625 L 219.91406 374.78711 L 230.06445 374.78711 L 230.06445 339.99609 L 219.82617 339.99609 L 219.82617 314.58398 L 230.06445 314.58398 L 230.06445 279.87891 L 219.82617 279.87891 L 219.82617 254.46875 L 53.421875 254.46875 z "
       transform="scale(0.26458333)" />
    <path
       id="rect1199"
       style="fill:none;stroke:#000000;stroke-width:0.995135;stroke-opacity:1"
       d="M 272.5293 36.550781 L 272.5293 46.6875 L 255.52344 46.6875 L 255.52344 224.53906 L 284.54492 224.53906 L 284.54492 234.66992 L 318.55859 234.66992 L 318.55859 224.53906 L 347.62109 224.53906 L 347.62109 234.66992 L 381.63672 234.66992 L 381.63672 224.53906 L 410.69727 224.53906 L 410.69727 234.66992 L 444.74609 234.66992 L 444.74609 224.57227 L 477.51953 224.57227 L 477.51953 46.6875 L 460.50977 46.6875 L 460.50977 36.550781 L 423.91602 36.550781 L 423.91602 46.6875 L 383.51367 46.6875 L 383.51367 36.550781 L 346.91797 36.550781 L 346.91797 46.6875 L 309.125 46.6875 L 309.125 36.550781 L 272.5293 36.550781 z "
       transform="scale(0.26458333)" />
    <path
       id="rect2860"
       style="fill:none;fill-rule:evenodd;stroke:#000000;stroke-width:0.993914;stroke-opacity:1"
       d="M 513.09766 252.17773 L 513.09766 278.57031 L 502.88281 278.57031 L 502.88281 313.26367 L 513.12109 313.26367 L 513.12109 338.61914 L 502.88281 338.61914 L 502.88281 373.33008 L 513.04688 373.33008 L 513.04688 402.36523 L 679.52734 402.36523 L 679.52734 383.4668 L 689.66406 383.4668 L 689.66406 346.87305 L 679.52734 346.87305 L 679.52734 307.66992 L 689.66406 307.66992 L 689.66406 271.07422 L 679.52734 271.07422 L 679.52734 252.17773 L 513.09766 252.17773 z "
       transform="scale(0.26458333)" />
    <rect
       style="fill:none;stroke:#000000;stroke-width:0.245614"
       id="rect3858"
       width="2.7543859"
       height="3.7543859"
       x="87.790932"
       y="85.50367" />
    <rect
       style="fill:none;stroke:#000000;stroke-width:0.245614"
       id="rect3962"
       width="2.7543859"
       height="3.7543859"
       x="102.28493"
       y="85.493668" />
    <rect
       style="fill:none;stroke:#000000;stroke-width:0.245614"
       id="rect3964"
       width="3.7543859"
       height="2.7543857"
       x="94.539932"
       y="93.25267" />
    <rect
       style="fill:none;stroke:#000000;stroke-width:0.245614"
       id="rect3966"
       width="3.7543862"
       height="2.7543859"
       x="94.529938"
       y="78.73967" />
    <rect
       style="fill:none;stroke:#000000;stroke-width:0.317803"
       id="rect4835"
       width="2.6821971"
       height="9.6821976"
       x="181.32881"
       y="-124.10505"
       transform="scale(1,-1)" />
    <rect
       style="fill:none;stroke:#000000;stroke-width:0.317803"
       id="rect4950"
       width="2.6821971"
       height="9.6821976"
       x="11.078127"
       y="-124.85339"
       transform="scale(1,-1)" />
    <rect
       style="fill:none;stroke:#000000;stroke-width:0.317803"
       id="rect4835-8"
       width="2.6821971"
       height="9.6821976"
       x="6.1424484"
       y="130.6111"
       transform="matrix(0,1,1,0,0,0)" />
  </g>
</svg>
