<?xml version="1.0" encoding="UTF-8" standalone="no"?>
<!-- Created with Inkscape (http://www.inkscape.org/) -->

<svg
   width="210mm"
   height="297mm"
   viewBox="0 0 210 297"
   version="1.1"
   id="svg3735"
   inkscape:version="1.1.1 (3bf5ae0d25, 2021-09-20)"
   sodipodi:docname="Main Body.svg"
   xmlns:inkscape="http://www.inkscape.org/namespaces/inkscape"
   xmlns:sodipodi="http://sodipodi.sourceforge.net/DTD/sodipodi-0.dtd"
   xmlns="http://www.w3.org/2000/svg"
   xmlns:svg="http://www.w3.org/2000/svg">
  <sodipodi:namedview
     id="namedview3737"
     pagecolor="#ffffff"
     bordercolor="#666666"
     borderopacity="1.0"
     inkscape:pageshadow="2"
     inkscape:pageopacity="0.0"
     inkscape:pagecheckerboard="0"
     inkscape:document-units="mm"
     showgrid="false"
     inkscape:zoom="0.25"
     inkscape:cx="850"
     inkscape:cy="358"
     inkscape:window-width="1366"
     inkscape:window-height="715"
     inkscape:window-x="-8"
     inkscape:window-y="-8"
     inkscape:window-maximized="1"
     inkscape:current-layer="layer1"
     showguides="false" />
  <defs
     id="defs3732" />
  <g
     inkscape:label="Layer 1"
     inkscape:groupmode="layer"
     id="layer1">
    <path
       style="fill:none;stroke:#000000;stroke-width:0.263939"
       d="m 130.39511,241.16254 h 2.73731 v 9.73739 h -2.73731 z"
       id="path18127" />
    <path
       style="fill:none;stroke:#000000;stroke-width:0.263939"
       d="m 74.411969,241.16254 h 2.737299 v 9.73739 h -2.737299 z"
       id="path18125" />
    <path
       style="fill:none;stroke:#000000;stroke-width:0.263939"
       d="m 74.413519,221.10898 h 2.733683 v 9.73377 h -2.733683 z"
       id="path18123" />
    <path
       style="fill:none;stroke:#000000;stroke-width:0.263939"
       d="m 130.47625,221.10743 h 2.7373 v 9.73687 h -2.7373 z"
       id="path18121" />
    <path
       style="fill:none;stroke:#000000;stroke-width:0.263939"
       d="m 118.97824,213.10017 h 9.73584 v 2.73575 h -9.73584 z"
       id="path18119" />
    <path
       style="fill:none;stroke:#000000;stroke-width:0.263939"
       d="m 99.295721,213.10017 h 9.735839 v 2.73575 h -9.735839 z"
       id="path18117" />
    <path
       style="fill:none;stroke:#000000;stroke-width:0.263939"
       d="m 78.922805,213.10017 h 9.735838 v 2.73575 h -9.735838 z"
       id="path18115" />
    <path
       style="fill:none;stroke:#000000;stroke-width:0.263939"
       d="m 71.412176,1.1306869 v 9.9999061 h 2.557468 v 29.55737 H 71.412176 V 80.68862 h 2.557468 v 29.55737 h -2.557468 v 40.00066 h 2.557468 v 29.55737 h -2.557468 v 96.74138 h 2.557468 v 29.55788 h -2.557468 v 19.99982 h 9.682096 v 2.76366 H 91.10193 v -2.76366 h 9.6821 v 2.76366 h 8.00003 v -2.76366 h 9.68209 v 2.76366 h 7.99951 v -2.76366 h 9.68262 v -19.99982 h -2.55747 V 276.5454 h 2.55747 v -96.84112 h -2.55747 v -29.55789 h 2.55747 v -39.9004 h -2.55747 V 80.68862 h 2.55747 V 40.687963 h -2.55747 v -29.55737 h 2.55747 V 1.1306869 h -9.80302 v 2.7326497 h -9.73274 V 1.1306869 h -9.73274 V 3.8633366 H 98.879751 V 1.1306869 h -9.773046 v 2.745052 h -7.973674 v -2.745052 z"
       id="rect5193" />
    <path
       id="rect5401"
       style="fill:none;stroke:#000000;stroke-width:0.264207"
       d="m 168.12252,1.8671497 v 2.7367838 h -10.1539 v 7.2646725 h -2.7373 v 29.560987 h 2.7373 v 39.986706 h -2.7373 v 29.581131 h 2.72541 v 39.88748 h -2.72541 v 29.58011 h 2.72335 v 96.84681 h -2.72335 v 29.56873 h 2.73781 v 16.95968 h 5.58261 v 2.76262 h 9.73584 v -2.76262 h 9.73584 v 2.76262 h 9.73636 v -2.76262 h 9.73584 v 2.76262 h 9.73635 v -2.76262 h 9.73584 v 2.76262 h 27.73733 v -2.76262 h 5.52886 v 2.76262 h 9.73584 v -2.76262 h 9.73635 v 2.76262 h 10.26087 V 4.6039335 h -9.73635 V 1.8671497 h -9.73635 v 2.7367838 h -9.73688 V 1.8671497 h -9.73739 V 4.6039335 H 236.2827 V 1.8671497 h -9.73687 v 2.7367838 h -9.73739 V 1.8671497 h -9.73739 v 2.7367838 h -9.73739 V 1.8671497 h -9.73688 v 2.7367838 h -9.73739 V 1.8671497 Z" />
    <path
       style="fill:none;stroke:#000000;stroke-width:0.264206"
       d="M -65.486451,-0.35465335 V 2.3826473 h -9.736873 V 324.38107 h 10.224698 v -2.75744 h 9.736357 v 2.75744 h 9.735839 v -2.81895 h 5.528862 v 2.81895 h 27.773498 v -2.76209 h 9.7363565 v 2.76209 h 9.735838 v -2.76209 h 9.7358415 v 2.76209 h 9.735839 v -2.76209 h 9.736357 v 2.76209 h 9.736357 v -2.76209 h 5.588807 v -16.9907 h 2.731097 v -29.58425 h -2.731097 v -96.71916 h 2.731097 v -29.56615 h -2.737815 v -39.99446 h 2.737815 v -29.577 H 51.774608 V 39.204173 h 2.737815 V 9.6338837 H 51.776674 V 2.3826473 H 41.623289 V -0.35465335 H 31.886416 V 2.3826473 H 22.149024 V -0.35465335 H 12.411636 V 2.3826473 H 2.6742445 v -2.73730065 h -9.736873 V 2.3826473 h -9.7373895 v -2.73730065 h -9.73739 V 2.3826473 h -9.736873 v -2.73730065 h -9.73739 V 2.3826473 h -9.737391 v -2.73730065 z"
       id="rect5483" />
    <path
       id="path8781"
       style="fill:none;stroke:#000000;stroke-width:0.263527"
       d="M 130.70184,429.50444 V 364.7678 H 120.966 v 2.76212 h -9.73635 v -2.76212 h -9.73584 v 2.76212 h -9.73635 v -2.76212 h -9.73584 v 2.76212 h -9.73584 v -2.76212 h -8.32042 v 9.68262 h 2.76366 v 8.02071 h -2.76366 v 9.64747 h 2.7771 v 8.02122 h -2.7771 v 9.67642 h 2.76159 v 9.97508 h -2.76159 v 9.71312 h 8.31991 v -2.76212 h 9.73635 v 2.76212 h 9.73584 v -2.76212 h 9.73635 v 2.76212 h 9.73584 v -2.76212 h 9.73583 v 2.76212 z" />
    <rect
       style="fill:none;stroke:#000000;stroke-width:0.262806"
       id="rect11699"
       width="64.737198"
       height="27.737194"
       x="-429.505"
       y="-158.43904"
       transform="matrix(0,-1,-1,0,0,0)" />
    <path
       id="path12443"
       style="fill:none;stroke:#000000;stroke-width:0.263053"
       d="M 158.4748,429.50444 V 364.7673 h 5.52888 v 2.76262 h 9.73585 v -2.76262 h 9.73636 v 2.76262 h 9.73587 v 59.21189 h -9.73587 v 2.76263 h -9.73636 v -2.76263 h -9.73585 v 2.76263 z" />
    <path
       id="path17404"
       style="fill:none;stroke:#000000;stroke-width:0.263778"
       d="M 137.19473,-138.30784 H 72.458114 v 9.73687 h 2.7373 v 9.73739 h -2.7373 v 9.73739 h 2.7373 v 9.7374 h -2.7373 v 9.73688 h 2.7373 v 9.73738 h -2.7373 v 9.7374 h 2.7373 v 9.73687 h -2.7373 v 9.73739 h 2.7373 v 9.73739 h -2.7373 v 9.73739 h 2.7373 v 9.73687 h -2.7373 v 10.15649 h 9.73325 v 2.7331703 h 8.00107 V -11.25202 h 9.73325 v 2.6804603 h 8.000026 V -11.25202 h 9.73274 v 2.6804603 h 9.80302 V -11.30473 h 9.73326 v -10.15752 h -2.73679 v -9.73739 h 2.73679 v -9.73687 h -2.73679 v -9.73739 h 2.73679 v -9.73739 h -2.73679 v -9.73739 h 2.73679 v -9.73688 h -2.73679 v -9.73739 h 2.73679 v -9.73739 h -2.73679 v -9.7374 h 2.73679 v -9.73687 h -2.73679 v -9.73739 h 2.73679 z" />
  </g>
</svg>
